<?xml version="1.0"?>
<svg xmlns="http://www.w3.org/2000/svg" xmlns:xlink="http://www.w3.org/1999/xlink" width="216.048203" height="222.036057">
	<defs>
		<marker id="CustomMarker-01" markerUnits="strokeWidth" markerWidth="15.000001" markerHeight="9" viewBox="-15 -4.5 15 9" orient="auto-start-reverse">
			<path d="M 0 -0 L -10 -3, -8 -0.5, -8 0.5, -10 3 Z" fill="#000000" stroke="#000000" stroke-linejoin="round" />
		</marker>
		<marker id="CustomMarker-02" markerUnits="strokeWidth" markerWidth="15.000001" markerHeight="9" viewBox="-15 -4.5 15 9" orient="auto-start-reverse">
			<path d="M 0 -0 L -10 -3, -8 -0.5, -8 0.5, -10 3 Z" fill="#000000" stroke="#000000" stroke-linejoin="round" />
		</marker>
		<marker id="CustomMarker-03" markerUnits="strokeWidth" markerWidth="15.000001" markerHeight="9" viewBox="-15 -4.5 15 9" orient="auto-start-reverse">
			<path d="M 0 -0 L -10 -3, -8 -0.5, -8 0.5, -10 3 Z" fill="#000000" stroke="#000000" stroke-linejoin="round" />
		</marker>
	</defs>
	<rect x="-0" y="-0" width="216.048203" height="222.036057" stroke="none" fill="#FFFFFF" />
	<path d="M -224.812 224.812 L -224.812 -89.9248, -89.9248 -224.812, 224.812 -224.812, 224.812 89.9248, 89.9248 224.812 Z" fill="none" stroke="#000000" stroke-width="2.4000001" stroke-linecap="round" stroke-linejoin="round" transform="matrix(0.416667 0 -0 0.416667 113.876 102.172)" />
	<path d="M -224.812 -89.9248 L 89.9248 -89.9248" fill="none" stroke="#000000" stroke-width="2.4000001" stroke-linecap="round" stroke-linejoin="round" transform="matrix(0.416667 0 -0 0.416667 113.876 102.172)" />
	<path d="M 224.812 -224.812 L 89.9248 -89.9248" fill="none" stroke="#000000" stroke-width="2.4000001" stroke-linecap="round" stroke-linejoin="round" transform="matrix(0.416667 0 -0 0.416667 113.876 102.172)" />
	<path d="M 89.9248 224.812 L 89.9248 -89.9248" fill="none" stroke="#000000" stroke-width="2.4000001" stroke-linecap="round" stroke-linejoin="round" transform="matrix(0.416667 0 -0 0.416667 113.876 102.172)" />
	<path d="M -224.812 224.812 L -89.9248 89.9248" fill="none" stroke="#000000" stroke-width="1.20000005" stroke-linecap="round" stroke-linejoin="round" stroke-dasharray="1.806, 2.994" transform="matrix(0.416667 0 -0 0.416667 113.876 102.172)" />
	<path d="M -89.9248 -224.812 L -89.9248 89.9248" fill="none" stroke="#000000" stroke-width="1.20000005" stroke-linecap="round" stroke-linejoin="round" stroke-dasharray="1.806, 2.994" transform="matrix(0.416667 0 -0 0.416667 113.876 102.172)" />
	<path d="M 224.812 89.9248 L -89.9248 89.9248" fill="none" stroke="#000000" stroke-width="1.20000005" stroke-linecap="round" stroke-linejoin="round" stroke-dasharray="1.806, 2.994" transform="matrix(0.416667 0 -0 0.416667 113.876 102.172)" />
	<path d="M -157.368 0 L 157.368 0" fill="none" stroke="#000000" stroke-width="2.4000001" stroke-linecap="round" stroke-linejoin="round" marker-end="url(#CustomMarker-01)" transform="matrix(0.416667 0 0 0.416667 85.775 195.843)" />
	<path d="M 0 157.368 L 0 -157.368" fill="none" stroke="#000000" stroke-width="2.4000001" stroke-linecap="round" stroke-linejoin="round" marker-end="url(#CustomMarker-02)" transform="matrix(0.416667 0 0 0.416667 19.7451 130.273)" />
	<path d="M -67.9239 67.2858 L 67.9236 -67.2861" fill="none" stroke="#000000" stroke-width="2.4000001" stroke-linecap="round" stroke-linejoin="round" marker-end="url(#CustomMarker-03)" transform="matrix(0.416667 0 0 0.416667 48.0467 167.808)" />
	<g transform="matrix(1 0 -0 1 128.116 196.174)">
		<svg width="24.0113144" height="26.9834461">
			<defs />
			<path d="M 6.64713 11.0455 C 6.5882 11.2812, 6.52163 11.5331, 6.4474 11.8017, 6.37318 12.0707, 6.27422 12.3199, 6.15052 12.5502, 6.02726 12.7805, 5.87162 12.9798, 5.68359 13.1475, 5.49601 13.3153, 5.2612 13.399, 4.97916 13.399, 4.604 13.399, 4.30352 13.2951, 4.0786 13.0864, 3.85369 12.8777, 3.72414 12.6653, 3.6895 12.449, 3.52127 12.6415, 3.27071 12.848, 2.93694 13.0684, 2.60361 13.2888, 2.2514 13.399, 1.88074 13.399, 1.49029 13.399, 1.16281 13.3009, 0.898312 13.1044, 0.633813 12.9078, 0.427791 12.6604, 0.279347 12.3626, 0.101665 12.0081, 0.00765055 11.6267, -0.00224572 11.2182 L -0.00224572 11.1103 C -0.00224572 10.7315, 0.0499345 10.3528, 0.153395 9.9731, 0.27215 9.55611, 0.437687 9.14362, 0.650006 8.73562, 0.862776 8.32808, 1.14437 7.94887, 1.49524 7.59801, 1.78223 7.31057, 2.1097 7.06856, 2.47766 6.87153, 2.84562 6.67496, 3.21988 6.57645, 3.60044 6.57599, 3.93151 6.57645, 4.20096 6.66416, 4.40833 6.83915, 4.61615 7.01458, 4.74705 7.15942, 4.80148 7.27413 L 4.77179 7.39648 C 4.80643 7.21925, 4.8892 7.0852, 5.0201 6.99389, 5.15145 6.90302, 5.2837 6.85714, 5.41684 6.85669, 5.56979 6.85714, 5.69844 6.90257, 5.80235 6.99344, 5.86667 7.06586, 5.90131 7.16167, 5.90581 7.28133, 5.90581 7.32496, 5.90086 7.37309, 5.89096 7.42527 L 4.82352 11.5853 C 4.77404 11.7823, 4.7394 11.9672, 4.71961 12.1395, 4.71016 12.2263, 4.70521 12.3055, 4.70521 12.377, 4.70521 12.44, 4.71016 12.507, 4.71961 12.5785, 4.7349 12.6941, 4.76954 12.7805, 4.82352 12.8381, 4.87795 12.8956, 4.95442 12.9244, 5.05338 12.924, 5.15729 12.9244, 5.25491 12.8812, 5.34622 12.7949, 5.43799 12.7085, 5.5221 12.5803, 5.59858 12.4098, 5.67505 12.2398, 5.74792 12.0356, 5.81719 11.7981, 5.88647 11.5606, 5.95799 11.3028, 6.03176 11.0239, 6.06145 10.8998, 6.14557 10.8372, 6.28412 10.8368 L 6.4546 10.8368 C 6.58325 10.8372, 6.64713 10.8899, 6.64713 10.9951 L 6.64713 11.0455 Z M 4.52708 8.3969 C 4.50729 8.31099, 4.4902 8.22102, 4.47535 8.12746, 4.46051 8.03389, 4.43802 7.94168, 4.40833 7.84991, 4.32961 7.625, 4.21715 7.43652, 4.07141 7.28538, 3.92566 7.13423, 3.74123 7.05866, 3.51902 7.05821, 3.31164 7.05866, 3.10652 7.13333, 2.90365 7.28178, 2.70123 7.43067, 2.5159 7.6223, 2.34766 7.85711, 2.1106 8.18863, 1.93292 8.5332, 1.81416 8.89037, 1.69541 9.24798, 1.58655 9.62089, 1.48759 10.0091, 1.38908 10.3932, 1.30766 10.7653, 1.24288 11.1247, 1.20375 11.3073, 1.18395 11.48, 1.18395 11.6429, 1.18395 11.8161, 1.20375 11.9838, 1.24288 12.1467, 1.28786 12.3725, 1.36793 12.5587, 1.48399 12.7049, 1.60005 12.8516, 1.76198 12.9244, 1.96935 12.924, 2.19697 12.9244, 2.42548 12.8453, 2.65534 12.6869, 2.88521 12.5286, 3.09888 12.3343, 3.29635 12.1035, 3.37552 12.0081, 3.45109 11.9159, 3.52261 11.8268, 3.59459 11.7382, 3.65756 11.6433, 3.71154 11.5421 L 4.52708 8.3969 Z" stroke="none" fill="#000000" />
			<rect />
		</svg>
	</g>
	<g transform="matrix(1 0 -0 1 28.6647 166.046)">
		<svg width="20.968298" height="39.0496445">
			<defs />
			<path d="M 5.2151 10.0163 C 5.09634 10.4342, 4.9299 10.8471, 4.71489 11.2547, 4.49987 11.6627, 4.21962 12.0392, 3.87326 12.3842, 3.58671 12.6725, 3.26194 12.9136, 2.89848 13.108, 2.53546 13.3023, 2.15851 13.399, 1.76806 13.399, 1.39245 13.399, 1.07847 13.2987, 0.826563 13.0972, 0.574659 12.8956, 0.381682 12.646, 0.248083 12.3482, 0.0901932 11.9937, 0.00607514 11.6123, -0.00382107 11.2038 L -0.00382107 11.1103 C -0.00382107 10.7315, 0.0456601 10.355, 0.144623 9.9803 L 1.63446 4.1865 C 1.67404 4.02861, 1.69878 3.90851, 1.70868 3.82664 L 1.70868 3.80505 C 1.70868 3.76231, 1.69878 3.73128, 1.67899 3.71148, 1.61961 3.6737, 1.5085 3.64716, 1.34522 3.63276, 1.18238 3.61837, 0.99435 3.61117, 0.78203 3.61072, 0.708258 3.61117, 0.653829 3.58733, 0.618742 3.53875, 0.589054 3.51041, 0.574209 3.47442, 0.574209 3.43079, 0.574209 3.40245, 0.581856 3.37591, 0.596701 3.35162 L 0.618742 3.23646 C 0.658327 3.12176, 0.747393 3.04978, 0.885941 3.02055 L 2.85034 2.86221, 2.88003 2.86221 C 2.93941 2.86266, 2.98844 2.882, 3.02803 2.91978, 3.04782 2.95847, 3.05772 2.99715, 3.05772 3.03494, 3.05772 3.06418, 3.05052 3.09072, 3.03567 3.11411 L 1.96823 7.25974 C 2.07709 7.14998, 2.27726 7.00828, 2.56875 6.83555, 2.86024 6.66281, 3.16657 6.57645, 3.48775 6.57599, 3.8782 6.57645, 4.20838 6.67721, 4.47738 6.87873, 4.74682 7.08025, 4.9533 7.32721, 5.09634 7.6196, 5.26458 7.97496, 5.35319 8.35912, 5.36309 8.77116 L 5.36309 8.87192 C 5.36309 9.24168, 5.31406 9.62314, 5.2151 10.0163 Z M 4.14 7.82832 C 4.09592 7.59846, 4.0118 7.41268, 3.8881 7.27098, 3.76485 7.12973, 3.60426 7.05866, 3.40633 7.05821, 3.16927 7.05866, 2.93716 7.13558, 2.70955 7.28897, 2.48238 7.44282, 2.26961 7.63669, 2.07169 7.8715, 1.91875 8.06853, 1.78515 8.25341, 1.67134 8.42569 L 1.2638 10.0091 C 1.16483 10.3932, 1.09106 10.763, 1.04158 11.1175, 1.02179 11.2668, 1.01189 11.4081, 1.01189 11.5421, 1.01189 11.7535, 1.03663 11.9551, 1.08611 12.1467, 1.14054 12.368, 1.23051 12.5529, 1.35646 12.7013, 1.48241 12.8502, 1.6493 12.9244, 1.85667 12.924, 2.06449 12.9244, 2.27096 12.848, 2.47609 12.6941, 2.68121 12.5407, 2.86519 12.3487, 3.02803 12.1179, 3.26554 11.7967, 3.44457 11.4553, 3.56557 11.0927, 3.68703 10.7306, 3.79678 10.36, 3.8953 9.9803, 3.99426 9.58715, 4.08108 9.2084, 4.15485 8.84313, 4.18454 8.67085, 4.19938 8.50306, 4.19938 8.33932, 4.19938 8.16704, 4.17959 7.99656, 4.14 7.82832 Z" stroke="none" fill="#000000" />
			<rect />
		</svg>
	</g>
	<g transform="matrix(1 0 -0 1 8.25002 83.0974)">
		<svg width="20.968298" height="26.9834461">
			<defs />
			<path d="M 5.55606 11.4773 C 5.5907 11.5115, 5.60779 11.5475, 5.60779 11.5853, 5.60779 11.6289, 5.58845 11.6771, 5.54887 11.7292, 5.15842 12.2717, 4.66045 12.686, 4.05498 12.9712, 3.44951 13.2564, 2.84315 13.399, 2.23498 13.399, 1.80494 13.399, 1.43203 13.3045, 1.1158 13.1152, 0.799572 12.9258, 0.549917 12.6775, 0.366836 12.3698, 0.159465 12.0248, 0.0407102 11.6483, 0.0110215 11.2398, 0.00112522 11.1395, -0.00382286 11.0387, -0.00382286 10.9375, -0.00382286 10.6308, 0.0357621 10.3118, 0.114932 9.9803, 0.233687 9.53947, 0.414968 9.11483, 0.659675 8.70684, 0.904382 8.29929, 1.21207 7.92458, 1.58272 7.58361, 1.92369 7.28673, 2.30065 7.04427, 2.71314 6.85714, 3.12609 6.67001, 3.53993 6.57645, 3.95467 6.57599, 4.20703 6.57645, 4.44319 6.61513, 4.66315 6.6916, 4.88312 6.76852, 5.0707 6.88008, 5.22634 7.02627, 5.38198 7.17292, 5.49444 7.3443, 5.56371 7.54043, 5.5835 7.64659, 5.59295 7.75185, 5.59295 7.85711, 5.59295 7.97271, 5.57856 8.09507, 5.54887 8.22417, 5.49444 8.44054, 5.38333 8.60517, 5.21509 8.71763, 5.04731 8.83054, 4.87907 8.88677, 4.71084 8.88632, 4.53315 8.88677, 4.39011 8.82424, 4.28125 8.69919, 4.19713 8.61822, 4.15485 8.51251, 4.15485 8.38251, 4.15485 8.33033, 4.16474 8.26555, 4.18454 8.18818, 4.23941 7.97766, 4.34692 7.82067, 4.50751 7.71721, 4.6681 7.6142, 4.7927 7.56022, 4.88132 7.55482, 4.83229 7.43517, 4.71488 7.32271, 4.52955 7.217, 4.34422 7.11174, 4.12336 7.05866, 3.86606 7.05821, 3.6191 7.05866, 3.36585 7.13423, 3.1063 7.28538, 2.84674 7.43652, 2.61823 7.63219, 2.42031 7.8715, 2.15356 8.18368, 1.94978 8.52106, 1.80899 8.88317, 1.66819 9.24573, 1.54809 9.62089, 1.44912 10.0091, 1.35061 10.3932, 1.27414 10.7653, 1.21926 11.1247, 1.19947 11.2403, 1.18957 11.3482, 1.18957 11.4485, 1.18957 11.6843, 1.22916 11.9096, 1.30833 12.1251, 1.38255 12.3653, 1.50715 12.5587, 1.68259 12.7049, 1.85802 12.8516, 2.06944 12.9244, 2.3164 12.924, 2.84045 12.9244, 3.3519 12.7904, 3.85121 12.5214, 4.35052 12.2528, 4.76302 11.888, 5.08914 11.427, 5.11883 11.3748, 5.17596 11.3338, 5.25963 11.3046 L 5.319 11.3046 C 5.36849 11.305, 5.41077 11.3217, 5.44496 11.355 L 5.55606 11.4773 Z" stroke="none" fill="#000000" />
			<rect />
		</svg>
	</g>
	<path d="M 0 0 L 268.069 249.456, 50.8574 199.076 Z" stroke="none" fill="#FF00E4" fill-opacity="0.392156839" transform="matrix(0.416667 0 0 0.416667 19.7451 91.9033)" />
</svg>
