<?xml version="1.0"?>
<svg xmlns="http://www.w3.org/2000/svg" xmlns:xlink="http://www.w3.org/1999/xlink" width="191.415878" height="87.4450302">
	<defs>
		<marker id="CustomMarker-01" markerUnits="strokeWidth" markerWidth="15.000001" markerHeight="9" viewBox="-15 -4.5 15 9" orient="auto-start-reverse">
			<path d="M 0 -0 L -10 -3, -8 -0.5, -8 0.5, -10 3 Z" fill="#000000" stroke="#000000" stroke-linejoin="round" />
		</marker>
		<marker id="CustomMarker-02" markerUnits="strokeWidth" markerWidth="15.000001" markerHeight="6" viewBox="-15 -3 15 6" orient="auto-start-reverse">
			<path d="M 0 -0 L -10 -2, -10 -0.5, -10 0.5, -10 2 Z" fill="#000000" stroke="#000000" stroke-linejoin="round" />
		</marker>
		<marker id="CustomMarker-03" markerUnits="strokeWidth" markerWidth="15.000001" markerHeight="6" viewBox="-15 -3 15 6" orient="auto-start-reverse">
			<path d="M 0 -0 L -10 -2, -10 -0.5, -10 0.5, -10 2 Z" fill="#000000" stroke="#000000" stroke-linejoin="round" />
		</marker>
		<marker id="CustomMarker-04" markerUnits="strokeWidth" markerWidth="15.000001" markerHeight="6" viewBox="-15 -3 15 6" orient="auto-start-reverse">
			<path d="M 0 -0 L -10 -2, -10 -0.5, -10 0.5, -10 2 Z" fill="#FF1E00" stroke="#FF1E00" stroke-linejoin="round" />
		</marker>
		<marker id="CustomMarker-05" markerUnits="strokeWidth" markerWidth="15.000001" markerHeight="6" viewBox="-15 -3 15 6" orient="auto-start-reverse">
			<path d="M 0 -0 L -10 -2, -10 -0.5, -10 0.5, -10 2 Z" fill="#FF1E00" stroke="#FF1E00" stroke-linejoin="round" />
		</marker>
	</defs>
	<rect x="-0" y="-0" width="191.415878" height="87.4450302" stroke="none" fill="#FFFFFF" />
	<ellipse cx="753.77838134765625" cy="724" rx="18.375" ry="18.375" stroke="none" fill="#000000" transform="matrix(0.142857 0 0 0.142857 -62.0064 -39.7061)" />
	<ellipse cx="612.90966796875" cy="366.8470458984375" rx="18.375" ry="18.375" stroke="none" fill="#000000" transform="matrix(0.142857 0 0 0.142857 -62.0064 -39.7061)" />
	<path d="M -338.436 1.76196 L 338.436 -1.76208" fill="none" stroke="#000000" stroke-width="7" stroke-linecap="round" stroke-linejoin="round" marker-end="url(#CustomMarker-01)" transform="matrix(0.142857 0 0 0.142857 97.0142 63.4708)" />
	<path d="M -39.6912 -100.63 L 2.83597 -107.44 C 47.6478 -106.361, 89.3969 -79.9294, 106.071 -37.6554 L 113.252 -0.58993" fill="none" stroke="#000000" stroke-width="5.25" stroke-linecap="round" stroke-linejoin="round" marker-start="url(#CustomMarker-02)" marker-end="url(#CustomMarker-03)" transform="matrix(0.142857 0 -0 0.142857 45.6763 63.7225)" />
	<path d="M 0 0 L -72.1081 -182.818" fill="none" stroke="#000000" stroke-width="3.5" stroke-linecap="round" stroke-linejoin="round" stroke-dasharray="19.2675, 8.7325, 0.035, 10.465" transform="matrix(0.142857 0 -0 0.142857 45.6763 63.7225)" />
	<path d="M 0 0 L 226.508 -1.17947" fill="none" stroke="#000000" stroke-width="3.5" stroke-linecap="round" stroke-linejoin="round" stroke-dasharray="19.2675, 8.7325, 0.035, 10.465" transform="matrix(0.142857 0 -0 0.142857 45.6763 63.7225)" />
	<path d="M -70.4344 -178.576 L 70.4343 178.576" fill="none" stroke="#000000" stroke-width="7" stroke-linecap="round" stroke-linejoin="round" transform="matrix(0.142857 0 0 0.142857 35.6142 38.2116)" />
	<ellipse cx="1592.4482421875" cy="366.8470458984375" rx="18.375" ry="18.375" stroke="none" fill="#FF1E00" transform="matrix(0.142857 0 0 0.142857 -62.0064 -39.7061)" />
	<path d="M -39.6912 -100.63 L 2.83596 -107.44 C 47.6478 -106.361, 89.397 -79.9294, 106.071 -37.6554 L 113.252 -0.58993" fill="none" stroke="#FF1E00" stroke-width="5.25" stroke-linecap="round" stroke-linejoin="round" marker-start="url(#CustomMarker-04)" marker-end="url(#CustomMarker-05)" transform="matrix(-0.142857 2.15708e-008 2.15708e-008 0.142857 145.362 63.7225)" />
	<path d="M 0 0 L -72.1081 -182.818" fill="none" stroke="#000000" stroke-width="3.5" stroke-linecap="round" stroke-linejoin="round" stroke-dasharray="19.2675, 8.7325, 0.035, 10.465" transform="matrix(-0.142857 2.15708e-008 2.15708e-008 0.142857 145.362 63.7225)" />
	<path d="M 0 0 L 226.508 -1.17945" fill="none" stroke="#000000" stroke-width="3.5" stroke-linecap="round" stroke-linejoin="round" stroke-dasharray="19.2675, 8.7325, 0.035, 10.465" transform="matrix(-0.142857 2.15708e-008 2.15708e-008 0.142857 145.362 63.7225)" />
	<path d="M 70.4343 -178.576 L -70.4344 178.576" fill="none" stroke="#FF1E00" stroke-width="7" stroke-linecap="round" stroke-linejoin="round" transform="matrix(0.142857 0 0 0.142857 155.424 38.2116)" />
	<ellipse cx="1451.5794677734375" cy="724" rx="18.375" ry="18.375" stroke="none" fill="#FF1E00" transform="matrix(0.142857 0 0 0.142857 -62.0064 -39.7061)" />
	<path d="M 0 0 L 943.035 -4.90976" fill="none" stroke="#000000" stroke-width="7" stroke-linecap="round" stroke-linejoin="round" stroke-dasharray="3.535, 10.465" transform="matrix(0.142857 0 0 0.142857 28.4887 12.7007)" />
	<g transform="matrix(1 0 -0 1 30.4823 61.5833)">
		<svg width="33.042347" height="38.9999886">
			<defs />
			<path d="M 9.7415 13.0175 C 9.68752 13.1615, 9.5935 13.2335, 9.45991 13.2335, 8.96599 13.2047, 8.47388 13.1903, 7.98447 13.1903 L 7.73976 13.1903 C 7.16173 13.2002, 6.581 13.2146, 5.99802 13.2335, 5.86487 13.2335, 5.7929 13.1714, 5.783 13.0463 L 5.783 12.9888, 5.81269 12.8664 C 5.85228 12.7085, 5.94854 12.6316, 6.10148 12.6361, 6.28456 12.6365, 6.44785 12.6307, 6.5909 12.6185, 6.73439 12.6069, 6.87294 12.5646, 7.00609 12.4921, 7.05557 12.4688, 7.09785 12.435, 7.13204 12.3914, 7.15183 12.3536, 7.16443 12.3149, 7.16893 12.2762 L 7.16893 12.233, 6.99124 9.84355, 3.64047 9.84355, 2.46192 11.8588 C 2.39759 11.9744, 2.3652 12.0801, 2.3652 12.1755, 2.3652 12.2573, 2.38994 12.332, 2.43942 12.3986, 2.54828 12.5574, 2.75116 12.6365, 3.04714 12.6361, 3.18074 12.6365, 3.25226 12.6941, 3.26216 12.8088, 3.26216 12.8381, 3.25721 12.8691, 3.24732 12.9024 L 3.21808 13.0175 C 3.16365 13.1615, 3.06738 13.2335, 2.92884 13.2335, 2.47451 13.2146, 2.02468 13.2002, 1.57935 13.1903 L 1.37963 13.1903 C 0.994123 13.1903, 0.603671 13.2047, 0.208272 13.2335, 0.13405 13.2335, 0.0796205 13.2096, 0.0449836 13.1615, 0.0152949 13.1332, 0.000450552 13.0994, 0.000450552 13.0607, 0.000450552 13.0324, 0.00539869 13.0036, 0.0152949 12.9744 L 0.0449836 12.8664 C 0.0845686 12.7085, 0.181282 12.6316, 0.334224 12.6361, 0.492564 12.6365, 0.648204 12.6199, 0.801146 12.5862, 0.954538 12.5529, 1.09803 12.4926, 1.23118 12.4062, 1.36478 12.3199, 1.48848 12.2155, 1.60184 12.0931, 1.71565 11.9708, 1.81686 11.8327, 1.90593 11.6789 L 7.13924 2.71826 C 7.2283 2.58421, 7.34211 2.51944, 7.48066 2.52393 L 7.62145 2.52393 C 7.77979 2.52438, 7.86841 2.59861, 7.8882 2.74705 L 8.54045 12.1251 C 8.55035 12.2501, 8.5652 12.3451, 8.58499 12.4098, 8.60478 12.4746, 8.63942 12.5214, 8.6889 12.5497, 8.75817 12.5934, 8.87288 12.6185, 9.03347 12.6257, 9.19451 12.6329, 9.37579 12.6365, 9.57821 12.6361, 9.71676 12.6365, 9.78603 12.6941, 9.78603 12.8088, 9.78603 12.8381, 9.78108 12.8691, 9.77119 12.9024 Z M 6.63543 4.74069 L 3.99628 9.26058, 6.94671 9.26058 Z" stroke="none" fill="#000000" />
			<rect />
		</svg>
	</g>
	<g transform="matrix(1 0 -0 1 150.504 61.5833)">
		<svg width="35.978817" height="36.1636276">
			<defs />
			<path d="M 10.2404 5.59717 C 10.1567 5.94309, 9.98981 6.26696, 9.74015 6.56925, 9.49049 6.87153, 9.2026 7.12839, 8.87648 7.33891, 8.61963 7.51209, 8.35648 7.64884, 8.08703 7.7496, 7.81758 7.85036, 7.72222 7.89354, 7.80139 7.8787, 7.78699 7.8742, 7.91654 7.93583, 8.19094 8.06268, 8.46533 8.18998, 8.70599 8.36362, 8.91336 8.58403, 9.14593 8.81974, 9.30427 9.10268, 9.38793 9.43331, 9.42752 9.59705, 9.45001 9.75764, 9.45451 9.91553, 9.45451 10.0982, 9.42752 10.288, 9.37309 10.4841, 9.27952 10.8539, 9.10634 11.207, 8.85444 11.5426, 8.60253 11.8786, 8.3007 12.171, 7.94983 12.4202, 7.57917 12.6892, 7.18512 12.892, 6.76768 13.0288, 6.35024 13.1655, 5.9337 13.2335, 5.51805 13.2335 L 0.210521 13.2335 C 0.136299 13.2335, 0.0818699 13.2119, 0.0472331 13.1687, 0.0130461 13.1354, -0.00449724 13.0994, -0.00449724 13.0607, -0.00449724 13.0324, 0.000450877 13.0036, 0.0103471 12.9744 L 0.0400358 12.8664 C 0.0697246 12.7085, 0.165988 12.6316, 0.328826 12.6361, 0.561388 12.6365, 0.779105 12.6329, 0.981528 12.6257, 1.18395 12.6185, 1.33734 12.5934, 1.4408 12.5497, 1.52987 12.502, 1.59914 12.3725, 1.64862 12.1611 L 3.73178 4.04976 C 3.76147 3.94449, 3.77587 3.86308, 3.77587 3.80505, 3.77587 3.74792, 3.76372 3.71418, 3.73898 3.70429, 3.66971 3.66155, 3.53521 3.63546, 3.33503 3.62557, 3.13486 3.61612, 2.91624 3.61117, 2.67873 3.61072, 2.60496 3.61117, 2.55053 3.58733, 2.51589 3.53875, 2.48621 3.51041, 2.47136 3.47442, 2.47136 3.43079, 2.47136 3.40245, 2.47901 3.37591, 2.4934 3.35162 L 2.51589 3.24366 C 2.53074 3.17709, 2.56673 3.12311, 2.6234 3.08217, 2.68008 3.04169, 2.74081 3.021, 2.80514 3.02055 L 7.71997 3.02055 C 8.12526 3.021, 8.50807 3.08127, 8.86883 3.20093, 9.22959 3.32103, 9.52873 3.51041, 9.76579 3.76906, 9.99835 4.00477, 10.1616 4.27827, 10.2552 4.58955, 10.2948 4.74834, 10.3146 4.90893, 10.3146 5.07177, 10.3146 5.24495, 10.2898 5.41993, 10.2404 5.59717 Z M 8.74288 5.56838 C 8.79236 5.37675, 8.8171 5.18512, 8.8171 4.9926 L 8.8171 4.81986 C 8.79731 4.59, 8.72803 4.37633, 8.60928 4.17931, 8.50582 4.00207, 8.36862 3.86308, 8.19814 3.76231, 8.02765 3.66155, 7.82883 3.61117, 7.60121 3.61072 L 5.64401 3.61072 C 5.38221 3.61117, 5.23151 3.62782, 5.19193 3.6611, 5.13255 3.70968, 5.07587 3.84868, 5.02144 4.07854 L 4.10244 7.69157, 6.12622 7.69157 C 6.40782 7.69202, 6.68716 7.63714, 6.9638 7.52648, 7.2409 7.41628, 7.50495 7.26019, 7.75685 7.05821, 8.2809 6.63627, 8.60973 6.13966, 8.74288 5.56838 Z M 7.83108 10.4409 C 7.90035 10.1967, 7.93499 9.95421, 7.93499 9.714 L 7.93499 9.56286 C 7.91519 9.29476, 7.84367 9.04736, 7.71997 8.82154, 7.61111 8.62542, 7.46401 8.46573, 7.27869 8.34337, 7.09336 8.22102, 6.87744 8.15984, 6.63003 8.15939 L 3.96884 8.15939, 2.93828 12.1899 C 2.8987 12.3536, 2.87891 12.471, 2.87891 12.5425, 2.87891 12.5812, 2.88161 12.6028, 2.88655 12.6073, 2.89645 12.6221, 3.0251 12.6316, 3.27206 12.6361 L 5.25131 12.6361 C 5.523 12.6365, 5.7974 12.5781, 6.07404 12.4602, 6.35114 12.3428, 6.60574 12.1881, 6.83785 11.9955, 7.09515 11.7801, 7.30612 11.5381, 7.47166 11.2691, 7.6372 11.0005, 7.7573 10.7243, 7.83108 10.4409 Z" stroke="none" fill="#000000" />
			<rect />
		</svg>
	</g>
	<g transform="matrix(1 0 -0 1 8.24997 8.24999)">
		<svg width="35.978817" height="38.9999886">
			<defs />
			<path d="M 9.17112 6.84949 C 9.14143 6.98444, 9.05506 7.05371, 8.91157 7.05821 L 8.74873 7.05821 C 8.63537 7.05866, 8.5733 7.00108, 8.5634 6.88548 L 8.5634 6.8279 C 8.61288 6.52606, 8.64032 6.23592, 8.64482 5.95703, 8.64482 5.79914, 8.63987 5.63855, 8.62997 5.47481, 8.58049 5.05287, 8.46939 4.67997, 8.29665 4.35609, 8.12392 4.03221, 7.89135 3.77311, 7.59986 3.57878, 7.30838 3.38446, 6.95211 3.28729, 6.53197 3.28684, 6.01827 3.28729, 5.50186 3.41235, 4.98276 3.66155, 4.46411 3.91121, 3.99449 4.24453, 3.57435 4.66152, 3.08493 5.15633, 2.70213 5.70333, 2.42548 6.30295, 2.14884 6.90302, 1.93112 7.51434, 1.77278 8.1378, 1.60005 8.77161, 1.50108 9.38563, 1.47634 9.9803 L 1.47634 10.1818 C 1.47634 10.7054, 1.58025 11.1827, 1.78762 11.6141, 1.98555 12.0225, 2.27434 12.3514, 2.65489 12.6006, 3.03545 12.8502, 3.48798 12.9748, 4.01158 12.9744, 4.43667 12.9748, 4.85411 12.8839, 5.26435 12.7013, 5.6746 12.5191, 6.05155 12.2731, 6.39522 11.9636, 6.73889 11.6541, 7.03893 11.2956, 7.29578 10.8876, 7.55308 10.4801, 7.73841 10.0478, 7.85177 9.59165, 7.88146 9.4576, 7.96828 9.39058, 8.11132 9.39013 L 8.27416 9.39013 C 8.39786 9.39058, 8.46444 9.44321, 8.47433 9.54847, 8.47433 9.5777, 8.46714 9.60424, 8.45229 9.62764, 8.31914 10.1557, 8.09918 10.6573, 7.79239 11.1323, 7.48606 11.6073, 7.1217 12.0239, 6.69886 12.381, 6.27647 12.7387, 5.81314 13.0238, 5.30889 13.2371, 4.80508 13.4507, 4.28597 13.5573, 3.75203 13.5573, 3.07009 13.5573, 2.46372 13.4147, 1.93247 13.1296, 1.40122 12.8444, 0.969835 12.4494, 0.638761 11.9452, 0.292842 11.4036, 0.0899694 10.8035, 0.0305918 10.1458, 0.0107995 9.96861, 0.000903189 9.78418, 0.000903189 9.59165, 0.000903189 9.10763, 0.0629796 8.61327, 0.186233 8.10901, 0.374261 7.40413, 0.672498 6.72399, 1.08004 6.06904, 1.48759 5.41409, 1.99769 4.81806, 2.61036 4.28007, 3.18884 3.7911, 3.81545 3.40245, 4.4902 3.11456, 5.16494 2.82667, 5.84058 2.68272, 6.51713 2.68227, 7.05602 2.68272, 7.5171 2.80148, 7.8999 3.03899, 8.28316 3.2765, 8.5661 3.56304, 8.74873 3.89861 L 9.7496 2.78304 C 9.78918 2.71646, 9.85576 2.68272, 9.94977 2.68227 L 10.0087 2.68227 C 10.1275 2.68272, 10.1868 2.7403, 10.1868 2.85501 L 10.1868 2.91259 Z" stroke="none" fill="#000000" />
			<rect />
		</svg>
	</g>
	<g transform="matrix(1 0 -0 1 169.52 8.24999)">
		<svg width="45.0141106" height="38.9999886">
			<defs />
			<path d="M 9.17112 6.84949 C 9.14143 6.98444, 9.05506 7.05371, 8.91157 7.05821 L 8.74873 7.05821 C 8.63537 7.05866, 8.5733 7.00108, 8.5634 6.88548 L 8.5634 6.8279 C 8.61288 6.52606, 8.64032 6.23592, 8.64482 5.95703, 8.64482 5.79914, 8.63987 5.63855, 8.62997 5.47481, 8.58049 5.05287, 8.46939 4.67997, 8.29665 4.35609, 8.12392 4.03221, 7.89135 3.77311, 7.59986 3.57878, 7.30838 3.38446, 6.95211 3.28729, 6.53197 3.28684, 6.01827 3.28729, 5.50186 3.41235, 4.98276 3.66155, 4.46411 3.91121, 3.99449 4.24453, 3.57435 4.66152, 3.08493 5.15633, 2.70213 5.70333, 2.42548 6.30295, 2.14884 6.90302, 1.93112 7.51434, 1.77278 8.1378, 1.60005 8.77161, 1.50108 9.38563, 1.47634 9.9803 L 1.47634 10.1818 C 1.47634 10.7054, 1.58025 11.1827, 1.78762 11.6141, 1.98555 12.0225, 2.27434 12.3514, 2.65489 12.6006, 3.03545 12.8502, 3.48798 12.9748, 4.01158 12.9744, 4.43667 12.9748, 4.85411 12.8839, 5.26435 12.7013, 5.6746 12.5191, 6.05155 12.2731, 6.39522 11.9636, 6.73889 11.6541, 7.03893 11.2956, 7.29578 10.8876, 7.55308 10.4801, 7.73841 10.0478, 7.85177 9.59165, 7.88146 9.4576, 7.96828 9.39058, 8.11132 9.39013 L 8.27416 9.39013 C 8.39786 9.39058, 8.46444 9.44321, 8.47433 9.54847, 8.47433 9.5777, 8.46714 9.60424, 8.45229 9.62764, 8.31914 10.1557, 8.09918 10.6573, 7.79239 11.1323, 7.48606 11.6073, 7.1217 12.0239, 6.69886 12.381, 6.27647 12.7387, 5.81314 13.0238, 5.30889 13.2371, 4.80508 13.4507, 4.28597 13.5573, 3.75203 13.5573, 3.07009 13.5573, 2.46372 13.4147, 1.93247 13.1296, 1.40122 12.8444, 0.969835 12.4494, 0.638761 11.9452, 0.292842 11.4036, 0.0899694 10.8035, 0.0305918 10.1458, 0.0107995 9.96861, 0.000903189 9.78418, 0.000903189 9.59165, 0.000903189 9.10763, 0.0629796 8.61327, 0.186233 8.10901, 0.374261 7.40413, 0.672498 6.72399, 1.08004 6.06904, 1.48759 5.41409, 1.99769 4.81806, 2.61036 4.28007, 3.18884 3.7911, 3.81545 3.40245, 4.4902 3.11456, 5.16494 2.82667, 5.84058 2.68272, 6.51713 2.68227, 7.05602 2.68272, 7.5171 2.80148, 7.8999 3.03899, 8.28316 3.2765, 8.5661 3.56304, 8.74873 3.89861 L 9.7496 2.78304 C 9.78918 2.71646, 9.85576 2.68272, 9.94977 2.68227 L 10.0087 2.68227 C 10.1275 2.68272, 10.1868 2.7403, 10.1868 2.85501 L 10.1868 2.91259 Z" stroke="none" fill="#000000" />
			<path d="M 11.7803 7.95067 C 11.7408 8.06133, 11.6742 8.11666, 11.5802 8.11621 L 11.5208 8.11621, 11.4763 8.09462 C 11.3827 8.07123, 11.3305 8.00645, 11.3206 7.90029 L 11.3206 7.84991, 12.0691 3.20767 C 12.1042 2.98726, 12.209 2.82082, 12.3845 2.70791, 12.5599 2.59546, 12.7367 2.53878, 12.9144 2.53833, 13.1073 2.53878, 13.263 2.59861, 13.3813 2.71826, 13.456 2.79068, 13.4928 2.8865, 13.4928 3.00615, 13.4928 3.09297, 13.4708 3.19373, 13.4258 3.30844 Z" stroke="none" fill="#000000" />
			<rect />
		</svg>
	</g>
	<g transform="matrix(1 0 -0 1 132.785 33.5833)">
		<svg width="24.0070553" height="38.9999886">
			<defs />
			<path d="M 6.26725 4.32325 C 6.386 4.77938, 6.44493 5.24495, 6.44493 5.71952, 6.44493 5.86886, 6.43998 6.01281, 6.43008 6.15136, 6.38105 6.78517, 6.27489 7.42077, 6.1116 8.05863, 5.93392 8.70189, 5.70901 9.3393, 5.43731 9.96996, 5.16561 10.6011, 4.8044 11.2065, 4.35457 11.7868, 4.20163 11.9838, 4.03204 12.1786, 3.84671 12.3702, 3.66139 12.5623, 3.46256 12.7337, 3.25024 12.8848, 3.03792 13.036, 2.81661 13.1597, 2.58674 13.2551, 2.35688 13.3513, 2.11577 13.399, 1.86387 13.399, 1.60702 13.399, 1.3857 13.35, 1.20037 13.2515, 1.01504 13.1534, 0.855802 13.0265, 0.722203 12.8705, 0.589053 12.7148, 0.478845 12.5407, 0.392478 12.3487, 0.306111 12.157, 0.235488 11.96, 0.181058 11.758, 0.0578051 11.3122, -0.00427139 10.8516, -0.00427139 10.3762, -0.00427139 10.2232, 0.00562489 10.0721, 0.0254173 9.92272, 0.0650023 9.29926, 0.171162 8.6686, 0.343896 8.02984, 0.507184 7.38749, 0.727151 6.75188, 1.0038 6.12302, 1.28089 5.49461, 1.64885 4.88734, 2.10858 4.30166, 2.26197 4.10553, 2.4302 3.90986, 2.61283 3.71553, 2.79546 3.52121, 2.99069 3.34847, 3.19806 3.19733, 3.40588 3.04619, 3.6245 2.92293, 3.85436 2.82667, 4.08422 2.73086, 4.32758 2.68272, 4.58443 2.68227, 4.84174 2.68272, 5.0617 2.73221, 5.24433 2.83027, 5.42696 2.92878, 5.5889 3.05473, 5.7297 3.20812, 5.87095 3.36197, 5.98205 3.53695, 6.06347 3.73353, 6.14534 3.93055, 6.21327 4.12713, 6.26725 4.32325 Z M 5.26638 4.48879 C 5.24658 4.30211, 5.22184 4.12713, 5.19215 3.96384, 5.16247 3.801, 5.11928 3.6593, 5.0626 3.5392, 5.00592 3.41954, 4.93305 3.32688, 4.84399 3.2621, 4.75492 3.19733, 4.64156 3.16494, 4.50302 3.16449, 4.21647 3.16494, 3.95198 3.29809, 3.70997 3.56439, 3.46796 3.83069, 3.23315 4.14872, 3.00553 4.51758, 2.67941 5.04568, 2.4275 5.58817, 2.24937 6.14461, 2.07124 6.7015, 1.9183 7.23859, 1.78965 7.75635 L 4.80665 7.75635 C 4.94025 7.21475, 5.06395 6.66281, 5.17731 6.10098, 5.25648 5.72222, 5.29606 5.34796, 5.29606 4.9782, 5.29606 4.81536, 5.28617 4.65253, 5.26638 4.48879 Z M 1.63401 8.33932 C 1.50086 8.88182, 1.38435 9.42881, 1.28539 9.9803, 1.20667 10.3788, 1.16708 10.7774, 1.16708 11.175, 1.16708 11.3244, 1.17203 11.4683, 1.18193 11.6069, 1.19182 11.7945, 1.21432 11.9699, 1.2485 12.1327, 1.28314 12.296, 1.32902 12.4364, 1.3857 12.5538, 1.44238 12.6716, 1.51795 12.7625, 1.61196 12.8273, 1.70598 12.892, 1.81979 12.9244, 1.95293 12.924, 2.23453 12.9244, 2.49768 12.7926, 2.74238 12.5286, 2.98709 12.265, 3.21785 11.9479, 3.43557 11.5781, 3.7617 11.041, 4.0136 10.4967, 4.19173 9.94477, 4.36987 9.39327, 4.52281 8.85798, 4.65101 8.33932 Z" stroke="none" fill="#FF1E00" />
			<rect />
		</svg>
	</g>
	<g transform="matrix(1 0 -0 1 54.1183 33.5833)">
		<svg width="24.0070553" height="38.9999886">
			<defs />
			<path d="M 6.26725 4.32325 C 6.386 4.77938, 6.44493 5.24495, 6.44493 5.71952, 6.44493 5.86886, 6.43998 6.01281, 6.43008 6.15136, 6.38105 6.78517, 6.27489 7.42077, 6.1116 8.05863, 5.93392 8.70189, 5.70901 9.3393, 5.43731 9.96996, 5.16561 10.6011, 4.8044 11.2065, 4.35457 11.7868, 4.20163 11.9838, 4.03204 12.1786, 3.84671 12.3702, 3.66139 12.5623, 3.46256 12.7337, 3.25024 12.8848, 3.03792 13.036, 2.81661 13.1597, 2.58674 13.2551, 2.35688 13.3513, 2.11577 13.399, 1.86387 13.399, 1.60702 13.399, 1.3857 13.35, 1.20037 13.2515, 1.01504 13.1534, 0.855802 13.0265, 0.722203 12.8705, 0.589053 12.7148, 0.478845 12.5407, 0.392478 12.3487, 0.306111 12.157, 0.235488 11.96, 0.181058 11.758, 0.0578051 11.3122, -0.00427139 10.8516, -0.00427139 10.3762, -0.00427139 10.2232, 0.00562489 10.0721, 0.0254173 9.92272, 0.0650023 9.29926, 0.171162 8.6686, 0.343896 8.02984, 0.507184 7.38749, 0.727151 6.75188, 1.0038 6.12302, 1.28089 5.49461, 1.64885 4.88734, 2.10858 4.30166, 2.26197 4.10553, 2.4302 3.90986, 2.61283 3.71553, 2.79546 3.52121, 2.99069 3.34847, 3.19806 3.19733, 3.40588 3.04619, 3.6245 2.92293, 3.85436 2.82667, 4.08422 2.73086, 4.32758 2.68272, 4.58443 2.68227, 4.84174 2.68272, 5.0617 2.73221, 5.24433 2.83027, 5.42696 2.92878, 5.5889 3.05473, 5.7297 3.20812, 5.87095 3.36197, 5.98205 3.53695, 6.06347 3.73353, 6.14534 3.93055, 6.21327 4.12713, 6.26725 4.32325 Z M 5.26638 4.48879 C 5.24658 4.30211, 5.22184 4.12713, 5.19215 3.96384, 5.16247 3.801, 5.11928 3.6593, 5.0626 3.5392, 5.00592 3.41954, 4.93305 3.32688, 4.84399 3.2621, 4.75492 3.19733, 4.64156 3.16494, 4.50302 3.16449, 4.21647 3.16494, 3.95198 3.29809, 3.70997 3.56439, 3.46796 3.83069, 3.23315 4.14872, 3.00553 4.51758, 2.67941 5.04568, 2.4275 5.58817, 2.24937 6.14461, 2.07124 6.7015, 1.9183 7.23859, 1.78965 7.75635 L 4.80665 7.75635 C 4.94025 7.21475, 5.06395 6.66281, 5.17731 6.10098, 5.25648 5.72222, 5.29606 5.34796, 5.29606 4.9782, 5.29606 4.81536, 5.28617 4.65253, 5.26638 4.48879 Z M 1.63401 8.33932 C 1.50086 8.88182, 1.38435 9.42881, 1.28539 9.9803, 1.20667 10.3788, 1.16708 10.7774, 1.16708 11.175, 1.16708 11.3244, 1.17203 11.4683, 1.18193 11.6069, 1.19182 11.7945, 1.21432 11.9699, 1.2485 12.1327, 1.28314 12.296, 1.32902 12.4364, 1.3857 12.5538, 1.44238 12.6716, 1.51795 12.7625, 1.61196 12.8273, 1.70598 12.892, 1.81979 12.9244, 1.95293 12.924, 2.23453 12.9244, 2.49768 12.7926, 2.74238 12.5286, 2.98709 12.265, 3.21785 11.9479, 3.43557 11.5781, 3.7617 11.041, 4.0136 10.4967, 4.19173 9.94477, 4.36987 9.39327, 4.52281 8.85798, 4.65101 8.33932 Z" stroke="none" fill="#000000" />
			<rect />
		</svg>
	</g>
</svg>
