<?xml version="1.0"?>
<svg xmlns="http://www.w3.org/2000/svg" xmlns:xlink="http://www.w3.org/1999/xlink" width="216.048218" height="222.036072">
	<defs>
		<marker id="CustomMarker-01" markerUnits="strokeWidth" markerWidth="15.000001" markerHeight="9" viewBox="-15 -4.5 15 9" orient="auto-start-reverse">
			<path d="M 0 -0 L -10 -3, -8 -0.5, -8 0.5, -10 3 Z" fill="#000000" stroke="#000000" stroke-linejoin="round" />
		</marker>
		<marker id="CustomMarker-02" markerUnits="strokeWidth" markerWidth="15.000001" markerHeight="9" viewBox="-15 -4.5 15 9" orient="auto-start-reverse">
			<path d="M 0 -0 L -10 -3, -8 -0.5, -8 0.5, -10 3 Z" fill="#000000" stroke="#000000" stroke-linejoin="round" />
		</marker>
		<marker id="CustomMarker-03" markerUnits="strokeWidth" markerWidth="15.000001" markerHeight="9" viewBox="-15 -4.5 15 9" orient="auto-start-reverse">
			<path d="M 0 -0 L -10 -3, -8 -0.5, -8 0.5, -10 3 Z" fill="#000000" stroke="#000000" stroke-linejoin="round" />
		</marker>
		<marker id="CustomMarker-04" markerUnits="strokeWidth" markerWidth="15.000001" markerHeight="9" viewBox="-15 -4.5 15 9" orient="auto-start-reverse">
			<path d="M 0 -0 L -10 -3, -8 -0.5, -8 0.5, -10 3 Z" fill="#000000" stroke="#000000" stroke-linejoin="round" />
		</marker>
		<marker id="CustomMarker-05" markerUnits="strokeWidth" markerWidth="15.000001" markerHeight="9" viewBox="-15 -4.5 15 9" orient="auto-start-reverse">
			<path d="M 0 -0 L -10 -3, -8 -0.5, -8 0.5, -10 3 Z" fill="#000000" stroke="#000000" stroke-linejoin="round" />
		</marker>
		<marker id="CustomMarker-06" markerUnits="strokeWidth" markerWidth="15.000001" markerHeight="9" viewBox="-15 -4.5 15 9" orient="auto-start-reverse">
			<path d="M 0 -0 L -10 -3, -8 -0.5, -8 0.5, -10 3 Z" fill="#000000" stroke="#000000" stroke-linejoin="round" />
		</marker>
	</defs>
	<rect x="-0" y="-0" width="216.048218" height="222.036072" stroke="none" fill="#FFFFFF" />
	<path d="M -187.343 187.343 L -187.343 -74.9373, -74.9373 -187.343, 187.343 -187.343, 187.343 74.9373, 74.9373 187.343 Z" fill="none" stroke="#000000" stroke-width="2" stroke-linecap="round" stroke-linejoin="round" transform="matrix(0.5 0 -0 0.5 -346.667 -22.5034)" />
	<path d="M -187.343 -74.9373 L 74.9373 -74.9373" fill="none" stroke="#000000" stroke-width="2" stroke-linecap="round" stroke-linejoin="round" transform="matrix(0.5 0 -0 0.5 -346.667 -22.5034)" />
	<path d="M 187.343 -187.343 L 74.9373 -74.9373" fill="none" stroke="#000000" stroke-width="2" stroke-linecap="round" stroke-linejoin="round" transform="matrix(0.5 0 -0 0.5 -346.667 -22.5034)" />
	<path d="M 74.9373 187.343 L 74.9373 -74.9373" fill="none" stroke="#000000" stroke-width="2" stroke-linecap="round" stroke-linejoin="round" transform="matrix(0.5 0 -0 0.5 -346.667 -22.5034)" />
	<path d="M -187.343 187.343 L -74.9373 74.9373" fill="none" stroke="#000000" stroke-width="1" stroke-linecap="round" stroke-linejoin="round" stroke-dasharray="1.505, 2.495" transform="matrix(0.5 0 -0 0.5 -346.667 -22.5034)" />
	<path d="M -74.9373 -187.343 L -74.9373 74.9373" fill="none" stroke="#000000" stroke-width="1" stroke-linecap="round" stroke-linejoin="round" stroke-dasharray="1.505, 2.495" transform="matrix(0.5 0 -0 0.5 -346.667 -22.5034)" />
	<path d="M 187.343 74.9373 L -74.9373 74.9373" fill="none" stroke="#000000" stroke-width="1" stroke-linecap="round" stroke-linejoin="round" stroke-dasharray="1.505, 2.495" transform="matrix(0.5 0 -0 0.5 -346.667 -22.5034)" />
	<path d="M -131.14 0 L 131.14 0" fill="none" stroke="#000000" stroke-width="2" stroke-linecap="round" stroke-linejoin="round" marker-end="url(#CustomMarker-01)" transform="matrix(0.5 0 0 0.5 -374.768 71.1682)" />
	<path d="M 0 131.14 L 0 -131.14" fill="none" stroke="#000000" stroke-width="2" stroke-linecap="round" stroke-linejoin="round" marker-end="url(#CustomMarker-02)" transform="matrix(0.5 0 0 0.5 -440.798 5.59811)" />
	<path d="M -56.6032 56.0714 L 56.603 -56.0718" fill="none" stroke="#000000" stroke-width="2" stroke-linecap="round" stroke-linejoin="round" marker-end="url(#CustomMarker-03)" transform="matrix(0.5 0 0 0.5 -412.497 43.1325)" />
	<g transform="matrix(1 0 -0 1 -332.428 71.4992)">
		<svg width="24.0113144" height="26.9834461">
			<defs />
			<path d="M 6.64713 11.0455 C 6.5882 11.2812, 6.52163 11.5331, 6.4474 11.8017, 6.37318 12.0707, 6.27422 12.3199, 6.15052 12.5502, 6.02726 12.7805, 5.87162 12.9798, 5.68359 13.1475, 5.49601 13.3153, 5.2612 13.399, 4.97916 13.399, 4.604 13.399, 4.30352 13.2951, 4.0786 13.0864, 3.85369 12.8777, 3.72414 12.6653, 3.6895 12.449, 3.52127 12.6415, 3.27071 12.848, 2.93694 13.0684, 2.60361 13.2888, 2.2514 13.399, 1.88074 13.399, 1.49029 13.399, 1.16281 13.3009, 0.898312 13.1044, 0.633813 12.9078, 0.427791 12.6604, 0.279347 12.3626, 0.101665 12.0081, 0.00765055 11.6267, -0.00224572 11.2182 L -0.00224572 11.1103 C -0.00224572 10.7315, 0.0499345 10.3528, 0.153395 9.9731, 0.27215 9.55611, 0.437687 9.14362, 0.650006 8.73562, 0.862776 8.32808, 1.14437 7.94887, 1.49524 7.59801, 1.78223 7.31057, 2.1097 7.06856, 2.47766 6.87153, 2.84562 6.67496, 3.21988 6.57645, 3.60044 6.57599, 3.93151 6.57645, 4.20096 6.66416, 4.40833 6.83915, 4.61615 7.01458, 4.74705 7.15942, 4.80148 7.27413 L 4.77179 7.39648 C 4.80643 7.21925, 4.8892 7.0852, 5.0201 6.99389, 5.15145 6.90302, 5.2837 6.85714, 5.41684 6.85669, 5.56979 6.85714, 5.69844 6.90257, 5.80235 6.99344, 5.86667 7.06586, 5.90131 7.16167, 5.90581 7.28133, 5.90581 7.32496, 5.90086 7.37309, 5.89096 7.42527 L 4.82352 11.5853 C 4.77404 11.7823, 4.7394 11.9672, 4.71961 12.1395, 4.71016 12.2263, 4.70521 12.3055, 4.70521 12.377, 4.70521 12.44, 4.71016 12.507, 4.71961 12.5785, 4.7349 12.6941, 4.76954 12.7805, 4.82352 12.8381, 4.87795 12.8956, 4.95442 12.9244, 5.05338 12.924, 5.15729 12.9244, 5.25491 12.8812, 5.34622 12.7949, 5.43799 12.7085, 5.5221 12.5803, 5.59858 12.4098, 5.67505 12.2398, 5.74792 12.0356, 5.81719 11.7981, 5.88647 11.5606, 5.95799 11.3028, 6.03176 11.0239, 6.06145 10.8998, 6.14557 10.8372, 6.28412 10.8368 L 6.4546 10.8368 C 6.58325 10.8372, 6.64713 10.8899, 6.64713 10.9951 L 6.64713 11.0455 Z M 4.52708 8.3969 C 4.50729 8.31099, 4.4902 8.22102, 4.47535 8.12746, 4.46051 8.03389, 4.43802 7.94168, 4.40833 7.84991, 4.32961 7.625, 4.21715 7.43652, 4.07141 7.28538, 3.92566 7.13423, 3.74123 7.05866, 3.51902 7.05821, 3.31164 7.05866, 3.10652 7.13333, 2.90365 7.28178, 2.70123 7.43067, 2.5159 7.6223, 2.34766 7.85711, 2.1106 8.18863, 1.93292 8.5332, 1.81416 8.89037, 1.69541 9.24798, 1.58655 9.62089, 1.48759 10.0091, 1.38908 10.3932, 1.30766 10.7653, 1.24288 11.1247, 1.20375 11.3073, 1.18395 11.48, 1.18395 11.6429, 1.18395 11.8161, 1.20375 11.9838, 1.24288 12.1467, 1.28786 12.3725, 1.36793 12.5587, 1.48399 12.7049, 1.60005 12.8516, 1.76198 12.9244, 1.96935 12.924, 2.19697 12.9244, 2.42548 12.8453, 2.65534 12.6869, 2.88521 12.5286, 3.09888 12.3343, 3.29635 12.1035, 3.37552 12.0081, 3.45109 11.9159, 3.52261 11.8268, 3.59459 11.7382, 3.65756 11.6433, 3.71154 11.5421 L 4.52708 8.3969 Z" stroke="none" fill="#000000" />
			<rect />
		</svg>
	</g>
	<g transform="matrix(1 0 -0 1 -431.879 41.3708)">
		<svg width="20.968298" height="39.0496445">
			<defs />
			<path d="M 5.2151 10.0163 C 5.09634 10.4342, 4.9299 10.8471, 4.71489 11.2547, 4.49987 11.6627, 4.21962 12.0392, 3.87326 12.3842, 3.58671 12.6725, 3.26194 12.9136, 2.89848 13.108, 2.53546 13.3023, 2.15851 13.399, 1.76806 13.399, 1.39245 13.399, 1.07847 13.2987, 0.826563 13.0972, 0.574659 12.8956, 0.381682 12.646, 0.248083 12.3482, 0.0901932 11.9937, 0.00607514 11.6123, -0.00382107 11.2038 L -0.00382107 11.1103 C -0.00382107 10.7315, 0.0456601 10.355, 0.144623 9.9803 L 1.63446 4.1865 C 1.67404 4.02861, 1.69878 3.90851, 1.70868 3.82664 L 1.70868 3.80505 C 1.70868 3.76231, 1.69878 3.73128, 1.67899 3.71148, 1.61961 3.6737, 1.5085 3.64716, 1.34522 3.63276, 1.18238 3.61837, 0.99435 3.61117, 0.78203 3.61072, 0.708258 3.61117, 0.653829 3.58733, 0.618742 3.53875, 0.589054 3.51041, 0.574209 3.47442, 0.574209 3.43079, 0.574209 3.40245, 0.581856 3.37591, 0.596701 3.35162 L 0.618742 3.23646 C 0.658327 3.12176, 0.747393 3.04978, 0.885941 3.02055 L 2.85034 2.86221, 2.88003 2.86221 C 2.93941 2.86266, 2.98844 2.882, 3.02803 2.91978, 3.04782 2.95847, 3.05772 2.99715, 3.05772 3.03494, 3.05772 3.06418, 3.05052 3.09072, 3.03567 3.11411 L 1.96823 7.25974 C 2.07709 7.14998, 2.27726 7.00828, 2.56875 6.83555, 2.86024 6.66281, 3.16657 6.57645, 3.48775 6.57599, 3.8782 6.57645, 4.20838 6.67721, 4.47738 6.87873, 4.74682 7.08025, 4.9533 7.32721, 5.09634 7.6196, 5.26458 7.97496, 5.35319 8.35912, 5.36309 8.77116 L 5.36309 8.87192 C 5.36309 9.24168, 5.31406 9.62314, 5.2151 10.0163 Z M 4.14 7.82832 C 4.09592 7.59846, 4.0118 7.41268, 3.8881 7.27098, 3.76485 7.12973, 3.60426 7.05866, 3.40633 7.05821, 3.16927 7.05866, 2.93716 7.13558, 2.70955 7.28897, 2.48238 7.44282, 2.26961 7.63669, 2.07169 7.8715, 1.91875 8.06853, 1.78515 8.25341, 1.67134 8.42569 L 1.2638 10.0091 C 1.16483 10.3932, 1.09106 10.763, 1.04158 11.1175, 1.02179 11.2668, 1.01189 11.4081, 1.01189 11.5421, 1.01189 11.7535, 1.03663 11.9551, 1.08611 12.1467, 1.14054 12.368, 1.23051 12.5529, 1.35646 12.7013, 1.48241 12.8502, 1.6493 12.9244, 1.85667 12.924, 2.06449 12.9244, 2.27096 12.848, 2.47609 12.6941, 2.68121 12.5407, 2.86519 12.3487, 3.02803 12.1179, 3.26554 11.7967, 3.44457 11.4553, 3.56557 11.0927, 3.68703 10.7306, 3.79678 10.36, 3.8953 9.9803, 3.99426 9.58715, 4.08108 9.2084, 4.15485 8.84313, 4.18454 8.67085, 4.19938 8.50306, 4.19938 8.33932, 4.19938 8.16704, 4.17959 7.99656, 4.14 7.82832 Z" stroke="none" fill="#000000" />
			<rect />
		</svg>
	</g>
	<g transform="matrix(1 0 -0 1 -358.622 -31.3092)">
		<svg width="20.968298" height="26.9834461">
			<defs />
			<path d="M 5.55606 11.4773 C 5.5907 11.5115, 5.60779 11.5475, 5.60779 11.5853, 5.60779 11.6289, 5.58845 11.6771, 5.54887 11.7292, 5.15842 12.2717, 4.66045 12.686, 4.05498 12.9712, 3.44951 13.2564, 2.84315 13.399, 2.23498 13.399, 1.80494 13.399, 1.43203 13.3045, 1.1158 13.1152, 0.799572 12.9258, 0.549917 12.6775, 0.366836 12.3698, 0.159465 12.0248, 0.0407102 11.6483, 0.0110215 11.2398, 0.00112522 11.1395, -0.00382286 11.0387, -0.00382286 10.9375, -0.00382286 10.6308, 0.0357621 10.3118, 0.114932 9.9803, 0.233687 9.53947, 0.414968 9.11483, 0.659675 8.70684, 0.904382 8.29929, 1.21207 7.92458, 1.58272 7.58361, 1.92369 7.28673, 2.30065 7.04427, 2.71314 6.85714, 3.12609 6.67001, 3.53993 6.57645, 3.95467 6.57599, 4.20703 6.57645, 4.44319 6.61513, 4.66315 6.6916, 4.88312 6.76852, 5.0707 6.88008, 5.22634 7.02627, 5.38198 7.17292, 5.49444 7.3443, 5.56371 7.54043, 5.5835 7.64659, 5.59295 7.75185, 5.59295 7.85711, 5.59295 7.97271, 5.57856 8.09507, 5.54887 8.22417, 5.49444 8.44054, 5.38333 8.60517, 5.21509 8.71763, 5.04731 8.83054, 4.87907 8.88677, 4.71084 8.88632, 4.53315 8.88677, 4.39011 8.82424, 4.28125 8.69919, 4.19713 8.61822, 4.15485 8.51251, 4.15485 8.38251, 4.15485 8.33033, 4.16474 8.26555, 4.18454 8.18818, 4.23941 7.97766, 4.34692 7.82067, 4.50751 7.71721, 4.6681 7.6142, 4.7927 7.56022, 4.88132 7.55482, 4.83229 7.43517, 4.71488 7.32271, 4.52955 7.217, 4.34422 7.11174, 4.12336 7.05866, 3.86606 7.05821, 3.6191 7.05866, 3.36585 7.13423, 3.1063 7.28538, 2.84674 7.43652, 2.61823 7.63219, 2.42031 7.8715, 2.15356 8.18368, 1.94978 8.52106, 1.80899 8.88317, 1.66819 9.24573, 1.54809 9.62089, 1.44912 10.0091, 1.35061 10.3932, 1.27414 10.7653, 1.21926 11.1247, 1.19947 11.2403, 1.18957 11.3482, 1.18957 11.4485, 1.18957 11.6843, 1.22916 11.9096, 1.30833 12.1251, 1.38255 12.3653, 1.50715 12.5587, 1.68259 12.7049, 1.85802 12.8516, 2.06944 12.9244, 2.3164 12.924, 2.84045 12.9244, 3.3519 12.7904, 3.85121 12.5214, 4.35052 12.2528, 4.76302 11.888, 5.08914 11.427, 5.11883 11.3748, 5.17596 11.3338, 5.25963 11.3046 L 5.319 11.3046 C 5.36849 11.305, 5.41077 11.3217, 5.44496 11.355 L 5.55606 11.4773 Z" stroke="none" fill="#000000" />
			<rect />
		</svg>
	</g>
	<path d="M 0 0 L 223.391 207.88, 42.3812 165.897 Z" stroke="none" fill="#FF00E4" fill-opacity="0.392156839" transform="matrix(0.5 0 0 0.5 -440.798 -32.7718)" />
	<path d="M -187.343 187.343 L -187.343 -74.9373, -74.9373 -187.343, 187.343 -187.343, 187.343 74.9373, 74.9373 187.343 Z" fill="none" stroke="#000000" stroke-width="2" stroke-linecap="round" stroke-linejoin="round" transform="matrix(0.5 0 -0 0.5 110.244 108.637)" />
	<path d="M -187.343 -74.9373 L 74.9373 -74.9373" fill="none" stroke="#000000" stroke-width="2" stroke-linecap="round" stroke-linejoin="round" transform="matrix(0.5 0 -0 0.5 110.244 108.637)" />
	<path d="M 187.343 -187.343 L 74.9373 -74.9373" fill="none" stroke="#000000" stroke-width="2" stroke-linecap="round" stroke-linejoin="round" transform="matrix(0.5 0 -0 0.5 110.244 108.637)" />
	<path d="M 74.9373 187.343 L 74.9373 -74.9373" fill="none" stroke="#000000" stroke-width="2" stroke-linecap="round" stroke-linejoin="round" transform="matrix(0.5 0 -0 0.5 110.244 108.637)" />
	<path d="M -187.343 187.343 L -74.9373 74.9373" fill="none" stroke="#000000" stroke-width="1" stroke-linecap="round" stroke-linejoin="round" stroke-dasharray="1.505, 2.495" transform="matrix(0.5 0 -0 0.5 110.244 108.637)" />
	<path d="M -74.9373 -187.343 L -74.9373 74.9373" fill="none" stroke="#000000" stroke-width="1" stroke-linecap="round" stroke-linejoin="round" stroke-dasharray="1.505, 2.495" transform="matrix(0.5 0 -0 0.5 110.244 108.637)" />
	<path d="M 187.343 74.9373 L -74.9373 74.9373" fill="none" stroke="#000000" stroke-width="1" stroke-linecap="round" stroke-linejoin="round" stroke-dasharray="1.505, 2.495" transform="matrix(0.5 0 -0 0.5 110.244 108.637)" />
	<path d="M -131.14 0 L 131.14 0" fill="none" stroke="#000000" stroke-width="2" stroke-linecap="round" stroke-linejoin="round" marker-end="url(#CustomMarker-04)" transform="matrix(0.5 0 0 0.5 82.1425 202.308)" />
	<path d="M 0 131.14 L 0 -131.14" fill="none" stroke="#000000" stroke-width="2" stroke-linecap="round" stroke-linejoin="round" marker-end="url(#CustomMarker-05)" transform="matrix(0.5 0 0 0.5 16.1125 136.738)" />
	<path d="M -56.6035 56.0713 L 56.6029 -56.0718" fill="none" stroke="#000000" stroke-width="2" stroke-linecap="round" stroke-linejoin="round" marker-end="url(#CustomMarker-06)" transform="matrix(0.5 0 0 0.5 44.4142 174.273)" />
	<g transform="matrix(1 0 -0 1 124.483 202.64)">
		<svg width="24.0113144" height="26.9834461">
			<defs />
			<path d="M 6.64713 11.0455 C 6.5882 11.2812, 6.52163 11.5331, 6.4474 11.8017, 6.37318 12.0707, 6.27422 12.3199, 6.15052 12.5502, 6.02726 12.7805, 5.87162 12.9798, 5.68359 13.1475, 5.49601 13.3153, 5.2612 13.399, 4.97916 13.399, 4.604 13.399, 4.30352 13.2951, 4.0786 13.0864, 3.85369 12.8777, 3.72414 12.6653, 3.6895 12.449, 3.52127 12.6415, 3.27071 12.848, 2.93694 13.0684, 2.60361 13.2888, 2.2514 13.399, 1.88074 13.399, 1.49029 13.399, 1.16281 13.3009, 0.898312 13.1044, 0.633813 12.9078, 0.427791 12.6604, 0.279347 12.3626, 0.101665 12.0081, 0.00765055 11.6267, -0.00224572 11.2182 L -0.00224572 11.1103 C -0.00224572 10.7315, 0.0499345 10.3528, 0.153395 9.9731, 0.27215 9.55611, 0.437687 9.14362, 0.650006 8.73562, 0.862776 8.32808, 1.14437 7.94887, 1.49524 7.59801, 1.78223 7.31057, 2.1097 7.06856, 2.47766 6.87153, 2.84562 6.67496, 3.21988 6.57645, 3.60044 6.57599, 3.93151 6.57645, 4.20096 6.66416, 4.40833 6.83915, 4.61615 7.01458, 4.74705 7.15942, 4.80148 7.27413 L 4.77179 7.39648 C 4.80643 7.21925, 4.8892 7.0852, 5.0201 6.99389, 5.15145 6.90302, 5.2837 6.85714, 5.41684 6.85669, 5.56979 6.85714, 5.69844 6.90257, 5.80235 6.99344, 5.86667 7.06586, 5.90131 7.16167, 5.90581 7.28133, 5.90581 7.32496, 5.90086 7.37309, 5.89096 7.42527 L 4.82352 11.5853 C 4.77404 11.7823, 4.7394 11.9672, 4.71961 12.1395, 4.71016 12.2263, 4.70521 12.3055, 4.70521 12.377, 4.70521 12.44, 4.71016 12.507, 4.71961 12.5785, 4.7349 12.6941, 4.76954 12.7805, 4.82352 12.8381, 4.87795 12.8956, 4.95442 12.9244, 5.05338 12.924, 5.15729 12.9244, 5.25491 12.8812, 5.34622 12.7949, 5.43799 12.7085, 5.5221 12.5803, 5.59858 12.4098, 5.67505 12.2398, 5.74792 12.0356, 5.81719 11.7981, 5.88647 11.5606, 5.95799 11.3028, 6.03176 11.0239, 6.06145 10.8998, 6.14557 10.8372, 6.28412 10.8368 L 6.4546 10.8368 C 6.58325 10.8372, 6.64713 10.8899, 6.64713 10.9951 L 6.64713 11.0455 Z M 4.52708 8.3969 C 4.50729 8.31099, 4.4902 8.22102, 4.47535 8.12746, 4.46051 8.03389, 4.43802 7.94168, 4.40833 7.84991, 4.32961 7.625, 4.21715 7.43652, 4.07141 7.28538, 3.92566 7.13423, 3.74123 7.05866, 3.51902 7.05821, 3.31164 7.05866, 3.10652 7.13333, 2.90365 7.28178, 2.70123 7.43067, 2.5159 7.6223, 2.34766 7.85711, 2.1106 8.18863, 1.93292 8.5332, 1.81416 8.89037, 1.69541 9.24798, 1.58655 9.62089, 1.48759 10.0091, 1.38908 10.3932, 1.30766 10.7653, 1.24288 11.1247, 1.20375 11.3073, 1.18395 11.48, 1.18395 11.6429, 1.18395 11.8161, 1.20375 11.9838, 1.24288 12.1467, 1.28786 12.3725, 1.36793 12.5587, 1.48399 12.7049, 1.60005 12.8516, 1.76198 12.9244, 1.96935 12.924, 2.19697 12.9244, 2.42548 12.8453, 2.65534 12.6869, 2.88521 12.5286, 3.09888 12.3343, 3.29635 12.1035, 3.37552 12.0081, 3.45109 11.9159, 3.52261 11.8268, 3.59459 11.7382, 3.65756 11.6433, 3.71154 11.5421 L 4.52708 8.3969 Z" stroke="none" fill="#000000" />
			<rect />
		</svg>
	</g>
	<g transform="matrix(1 0 -0 1 31.0322 167.573)">
		<svg width="20.968298" height="39.0496445">
			<defs />
			<path d="M 5.2151 10.0163 C 5.09634 10.4342, 4.9299 10.8471, 4.71489 11.2547, 4.49987 11.6627, 4.21962 12.0392, 3.87326 12.3842, 3.58671 12.6725, 3.26194 12.9136, 2.89848 13.108, 2.53546 13.3023, 2.15851 13.399, 1.76806 13.399, 1.39245 13.399, 1.07847 13.2987, 0.826563 13.0972, 0.574659 12.8956, 0.381682 12.646, 0.248083 12.3482, 0.0901932 11.9937, 0.00607514 11.6123, -0.00382107 11.2038 L -0.00382107 11.1103 C -0.00382107 10.7315, 0.0456601 10.355, 0.144623 9.9803 L 1.63446 4.1865 C 1.67404 4.02861, 1.69878 3.90851, 1.70868 3.82664 L 1.70868 3.80505 C 1.70868 3.76231, 1.69878 3.73128, 1.67899 3.71148, 1.61961 3.6737, 1.5085 3.64716, 1.34522 3.63276, 1.18238 3.61837, 0.99435 3.61117, 0.78203 3.61072, 0.708258 3.61117, 0.653829 3.58733, 0.618742 3.53875, 0.589054 3.51041, 0.574209 3.47442, 0.574209 3.43079, 0.574209 3.40245, 0.581856 3.37591, 0.596701 3.35162 L 0.618742 3.23646 C 0.658327 3.12176, 0.747393 3.04978, 0.885941 3.02055 L 2.85034 2.86221, 2.88003 2.86221 C 2.93941 2.86266, 2.98844 2.882, 3.02803 2.91978, 3.04782 2.95847, 3.05772 2.99715, 3.05772 3.03494, 3.05772 3.06418, 3.05052 3.09072, 3.03567 3.11411 L 1.96823 7.25974 C 2.07709 7.14998, 2.27726 7.00828, 2.56875 6.83555, 2.86024 6.66281, 3.16657 6.57645, 3.48775 6.57599, 3.8782 6.57645, 4.20838 6.67721, 4.47738 6.87873, 4.74682 7.08025, 4.9533 7.32721, 5.09634 7.6196, 5.26458 7.97496, 5.35319 8.35912, 5.36309 8.77116 L 5.36309 8.87192 C 5.36309 9.24168, 5.31406 9.62314, 5.2151 10.0163 Z M 4.14 7.82832 C 4.09592 7.59846, 4.0118 7.41268, 3.8881 7.27098, 3.76485 7.12973, 3.60426 7.05866, 3.40633 7.05821, 3.16927 7.05866, 2.93716 7.13558, 2.70955 7.28897, 2.48238 7.44282, 2.26961 7.63669, 2.07169 7.8715, 1.91875 8.06853, 1.78515 8.25341, 1.67134 8.42569 L 1.2638 10.0091 C 1.16483 10.3932, 1.09106 10.763, 1.04158 11.1175, 1.02179 11.2668, 1.01189 11.4081, 1.01189 11.5421, 1.01189 11.7535, 1.03663 11.9551, 1.08611 12.1467, 1.14054 12.368, 1.23051 12.5529, 1.35646 12.7013, 1.48241 12.8502, 1.6493 12.9244, 1.85667 12.924, 2.06449 12.9244, 2.27096 12.848, 2.47609 12.6941, 2.68121 12.5407, 2.86519 12.3487, 3.02803 12.1179, 3.26554 11.7967, 3.44457 11.4553, 3.56557 11.0927, 3.68703 10.7306, 3.79678 10.36, 3.8953 9.9803, 3.99426 9.58715, 4.08108 9.2084, 4.15485 8.84313, 4.18454 8.67085, 4.19938 8.50306, 4.19938 8.33932, 4.19938 8.16704, 4.17959 7.99656, 4.14 7.82832 Z" stroke="none" fill="#000000" />
			<rect />
		</svg>
	</g>
	<g transform="matrix(1 0 -0 1 5.94959 34.3267)">
		<svg width="66.0339432" height="39.0496445">
			<defs />
			<path d="M 13.5944 9.9803 C 13.5944 10.422, 13.5229 10.8458, 13.3794 11.2511, 13.2364 11.6568, 13.0348 12.0176, 12.7753 12.3343, 12.5162 12.6509, 12.2049 12.9055, 11.8414 13.0972, 11.4784 13.2888, 11.0722 13.3846, 10.6224 13.3846, 10.2567 13.3846, 9.90943 13.3342, 9.58105 13.2335, 9.25268 13.1332, 8.94005 12.9928, 8.64361 12.8129, 8.34717 12.6329, 8.07053 12.4269, 7.81323 12.1939, 7.55637 11.9613, 7.31931 11.7081, 7.1016 11.4341 L 6.68685 10.9159 C 6.50872 11.2043, 6.28381 11.5021, 6.01211 11.8089, 5.74041 12.1161, 5.44802 12.3846, 5.13404 12.615, 4.82006 12.8453, 4.47819 13.031, 4.10753 13.1723, 3.73687 13.314, 3.33923 13.3846, 2.91414 13.3846, 2.47465 13.3846, 2.07431 13.2888, 1.71354 13.0972, 1.35278 12.9055, 1.04645 12.6509, 0.794543 12.3343, 0.542639 12.0176, 0.347413 11.6568, 0.208865 11.2511, 0.0707679 10.8458, 0.00149423 10.422, 0.00149423 9.9803, 0.00149423 9.53947, 0.0734668 9.11348, 0.216513 8.70324, 0.359558 8.29299, 0.559732 7.92953, 0.816585 7.61285, 1.07389 7.29617, 1.38517 7.04202, 1.75043 6.84994, 2.11614 6.65831, 2.52369 6.56205, 2.97351 6.5616, 3.69504 6.56205, 4.35449 6.74918, 4.95231 7.12344, 5.55059 7.49769, 6.06429 7.95832, 6.49388 8.50486 L 6.90907 9.03746 C 7.0872 8.75002, 7.31167 8.45268, 7.58336 8.14545, 7.85506 7.83867, 8.1479 7.56742, 8.46188 7.33216, 8.77586 7.09735, 9.11773 6.91022, 9.48839 6.77077, 9.85905 6.63177, 10.2567 6.56205, 10.6813 6.5616, 11.1213 6.56205, 11.5216 6.65831, 11.8824 6.84994, 12.2431 7.04202, 12.5495 7.29617, 12.8014 7.61285, 13.0533 7.92953, 13.2485 8.29299, 13.3871 8.70324, 13.5256 9.11348, 13.5944 9.53947, 13.5944 9.9803 Z M 13.1127 9.9803 C 13.1127 9.60649, 13.056 9.24798, 12.9422 8.90476, 12.8288 8.56199, 12.6682 8.2642, 12.4604 8.0123, 12.253 7.7604, 12.0074 7.55797, 11.7231 7.40413, 11.4388 7.25074, 11.1289 7.17382, 10.7929 7.17337, 10.4173 7.17382, 10.0687 7.24219, 9.74749 7.37894, 9.42631 7.51569, 9.12403 7.69697, 8.83974 7.92233, 8.55589 8.14815, 8.29139 8.41445, 8.04669 8.72123, 7.80198 9.02846, 7.58831 9.33794, 7.40568 9.64923 L 8.17624 10.6281 C 8.36921 10.8732, 8.56579 11.1098, 8.76596 11.3374, 8.96614 11.5655, 9.17216 11.7684, 9.38448 11.9456, 9.5968 12.1233, 9.82306 12.265, 10.0628 12.3702, 10.3026 12.476, 10.5608 12.5286, 10.837 12.5281, 11.1636 12.5286, 11.4649 12.4602, 11.7416 12.3235, 12.0182 12.1867, 12.2589 12.0009, 12.464 11.7657, 12.6691 11.5309, 12.8288 11.2596, 12.9422 10.9524, 13.056 10.6456, 13.1127 10.3213, 13.1127 9.9803 Z M 5.41924 9.32535 C 5.21681 9.08109, 5.01799 8.84268, 4.82276 8.60967, 4.62754 8.37711, 4.42151 8.17199, 4.2038 7.99431, 3.98653 7.81707, 3.76072 7.67538, 3.5259 7.56967, 3.29109 7.46441, 3.03559 7.41133, 2.7585 7.41088, 2.43237 7.41133, 2.13098 7.4797, 1.85434 7.61645, 1.5777 7.7532, 1.33704 7.93943, 1.13191 8.17424, 0.926793 8.4095, 0.767553 8.68299, 0.653746 8.99473, 0.540389 9.30691, 0.483261 9.63528, 0.483261 9.9803, 0.483261 10.355, 0.540389 10.7104, 0.653746 11.0459, 0.767553 11.382, 0.928142 11.6757, 1.13551 11.9276, 1.34333 12.1795, 1.58894 12.3824, 1.87278 12.5358, 2.15707 12.6896, 2.46701 12.7661, 2.80303 12.7656, 3.16874 12.7661, 3.51466 12.6991, 3.84079 12.5646, 4.16691 12.4305, 4.4719 12.2492, 4.75619 12.0212, 5.04048 11.7936, 5.30453 11.5259, 5.54924 11.2187, 5.79394 10.9119, 6.00761 10.6047, 6.19024 10.297 Z" stroke="none" fill="#000000" />
			<path d="M 20.6708 4.74789 C 20.6708 5.05062, 20.6006 5.34121, 20.4598 5.61921, 20.319 5.89765, 20.1076 6.12077, 19.826 6.2881, 19.2579 6.65786, 18.7986 7.12344, 18.4478 7.68482, 18.0969 8.24621, 17.9215 8.85303, 17.9215 9.50528 L 17.9215 10.2466 C 17.9215 10.3815, 17.8472 10.4486, 17.6988 10.4481 L 17.6025 10.4481 C 17.4644 10.4486, 17.3952 10.3815, 17.3952 10.2466 L 17.3952 9.50528 C 17.3952 8.83864, 17.5153 8.19583, 17.7546 7.57686, 17.9943 6.9579, 18.3587 6.41091, 18.8477 5.93544, 19.0011 5.78699, 19.1063 5.60976, 19.163 5.40329, 19.2197 5.19727, 19.248 4.97865, 19.248 4.74789, 19.248 4.49868, 19.2345 4.27242, 19.2075 4.0682, 19.1805 3.86442, 19.1 3.69529, 18.9664 3.56034, 18.8036 3.40245, 18.6084 3.29449, 18.3807 3.23691, 18.1536 3.17934, 17.9116 3.15055, 17.6547 3.1501, 17.2395 3.15055, 16.8576 3.23601, 16.5094 3.40605, 16.1613 3.57653, 15.9328 3.76726, 15.8239 3.97778, 15.7798 3.98768, 15.787 3.99263, 15.846 3.99218, 16.0043 3.99263, 16.155 4.03806, 16.298 4.12892, 16.5009 4.26387, 16.6021 4.46989, 16.6021 4.74789, 16.6021 4.99799, 16.5243 5.18512, 16.3687 5.30973, 16.213 5.43478, 16.034 5.49685, 15.8311 5.49641, 15.6386 5.49685, 15.4645 5.43478, 15.3089 5.30973, 15.1532 5.18512, 15.0754 4.99799, 15.0754 4.74789, 15.0754 4.43166, 15.1483 4.14512, 15.294 3.88827, 15.4398 3.63186, 15.6327 3.41235, 15.872 3.22972, 16.1118 3.04753, 16.3848 2.90854, 16.6912 2.81227, 16.9975 2.71646, 17.3187 2.66833, 17.6547 2.66788, 18.0254 2.66833, 18.3983 2.70207, 18.7739 2.76909, 19.1495 2.83657, 19.5026 2.98006, 19.8337 3.20048, 20.1054 3.37366, 20.3132 3.59813, 20.4562 3.87387, 20.5993 4.15007, 20.6708 4.44111, 20.6708 4.74789 Z M 18.5292 12.3626 C 18.5292 12.6028, 18.4442 12.8057, 18.2737 12.9712, 18.1032 13.1368, 17.8967 13.2191, 17.6547 13.2191, 17.4127 13.2191, 17.2049 13.1368, 17.0321 12.9712, 16.8594 12.8057, 16.7726 12.6028, 16.7726 12.3626, 16.7726 12.1278, 16.8594 11.9276, 17.0321 11.7621, 17.2049 11.5965, 17.4127 11.5138, 17.6547 11.5133, 17.8967 11.5138, 18.1032 11.5965, 18.2737 11.7621, 18.4442 11.9276, 18.5292 12.1278, 18.5292 12.3626 Z" stroke="none" fill="#000000" />
			<rect />
		</svg>
	</g>
	<path d="M 0 0 L 0 257.966, 159.417 309.825, 159.417 47.5449 Z" stroke="none" fill="#C5AAF0" fill-opacity="0.392156839" transform="matrix(0.5 0 0 0.5 42.2882 47.3958)" />
</svg>
