<?xml version="1.0" standalone="no"?><!DOCTYPE svg PUBLIC "-//W3C//DTD SVG 1.1//EN" "http://www.w3.org/Graphics/SVG/1.1/DTD/svg11.dtd"><svg t="1758948667161" class="icon" viewBox="0 0 1024 1024" version="1.1" xmlns="http://www.w3.org/2000/svg" p-id="27345" xmlns:xlink="http://www.w3.org/1999/xlink" width="200" height="200"><path d="M960 261.632c-0.512-8.192-5.12-15.872-12.288-19.968l-212.992-122.88-1.536-1.024c-7.68-3.584-16.384-3.072-23.552 1.024L512 234.496 311.296 118.784l-1.536-1.024c-7.68-3.584-16.384-3.072-23.552 1.024l-209.92 122.88-1.536 1.024c-6.656 4.608-10.752 12.288-10.752 20.48v249.856c0.512 7.68 4.608 14.848 11.264 18.944l114.688 75.776 1.536 1.024c11.264 6.656 26.112 3.072 33.28-7.68l1.024-1.536c6.656-11.264 3.072-26.112-7.68-33.28L114.176 498.176V277.504L299.008 168.96l187.904 108.544v220.16l-105.984 68.096-1.536 1.024c-10.752 7.68-13.312 22.528-6.144 33.28 7.168 11.776 23.04 14.848 34.304 7.68l103.936-66.56 100.864 66.56 1.536 1.024c11.264 6.656 26.112 3.072 33.28-8.192 7.68-11.776 4.096-27.136-7.168-34.304l-103.424-68.096v-220.16L721.92 168.96l187.904 108.544v220.16L803.84 566.272l-1.536 1.024c-10.752 7.68-13.312 22.528-6.144 33.28 7.168 11.776 23.04 14.848 34.304 7.68l117.76-75.776 1.536-1.024c6.144-4.608 10.24-12.288 10.24-19.968V261.632z" p-id="27346"></path><path d="M737.28 491.52l-114.688-75.776-1.536-1.024c-11.264-6.656-26.112-3.072-33.28 7.68l-1.024 1.536c-6.656 11.264-3.072 26.112 7.68 33.28l103.424 68.096v220.672l-184.32 109.056-187.904-108.544v-220.16l106.496-68.096 1.536-1.024c10.752-7.68 13.312-22.528 6.144-33.792-7.68-11.776-23.04-14.848-34.304-7.168L287.232 491.52l-1.536 1.024c-6.144 4.608-10.24 12.288-10.24 19.968V762.88c0.512 8.192 5.12 15.872 12.288 19.968l212.992 122.88 1.536 1.024c7.68 3.584 16.384 3.072 23.552-1.024l209.92-122.88 1.536-1.024c6.656-4.608 10.752-12.288 10.752-20.48V510.976c0-7.68-4.096-14.848-10.752-19.456z" p-id="27347"></path></svg>