<?xml version="1.0" standalone="no"?><!DOCTYPE svg PUBLIC "-//W3C//DTD SVG 1.1//EN" "http://www.w3.org/Graphics/SVG/1.1/DTD/svg11.dtd"><svg t="1758901052930" class="icon" viewBox="0 0 1024 1024" version="1.1" xmlns="http://www.w3.org/2000/svg" p-id="13068" xmlns:xlink="http://www.w3.org/1999/xlink" width="200" height="200"><path d="M877.381818 814.545455H146.618182A122.298182 122.298182 0 0 1 24.436364 692.363636V230.981818a122.298182 122.298182 0 0 1 122.181818-122.181818h730.763636a122.298182 122.298182 0 0 1 122.181818 122.181818V692.363636A122.298182 122.298182 0 0 1 877.381818 814.545455zM146.618182 166.981818a64.116364 64.116364 0 0 0-64 64V692.363636a64.116364 64.116364 0 0 0 64 64h730.763636a64.116364 64.116364 0 0 0 64-64V230.981818a64.116364 64.116364 0 0 0-64-64z" fill="" p-id="13069"></path><path d="M971.636364 954.181818h-919.272728a29.090909 29.090909 0 0 1 0-58.181818h919.272728a29.090909 29.090909 0 0 1 0 58.181818z" fill="" p-id="13070"></path></svg>