<?xml version="1.0" standalone="no"?><!DOCTYPE svg PUBLIC "-//W3C//DTD SVG 1.1//EN" "http://www.w3.org/Graphics/SVG/1.1/DTD/svg11.dtd"><svg t="1758901077831" class="icon" viewBox="0 0 1024 1024" version="1.1" xmlns="http://www.w3.org/2000/svg" p-id="14176" xmlns:xlink="http://www.w3.org/1999/xlink" width="200" height="200"><path d="M168.133285 832.154159l-5.845995-0.281c-10.096992-0.502-19.193984-3.126997-26.727978-5.626995-16.661986-5.688995-34.855971-19.444984-38.637967-22.882981-7.721994-8.065993-21.475982-26.259978-26.790978-41.796965-2.875998-8.657993-5.501995-17.755985-6.001995-27.853977l-0.281-5.845995 26.883978-200.723834c2.844998-21.788982 12.972989-42.576965 28.509976-58.394951L561.484959 28.442826c40.420966-37.668969 101.346916-37.637969 140.172884-1.593998l165.806862 165.743862c37.698969 40.575966 37.698969 101.439916 1.687999 140.266884l-1.593999 1.656998L427.69007 776.291206c-16.254987 16.005987-37.043969 26.132978-58.957951 28.978976l-200.598834 26.883977z m48.42296-279.594768l-19.631983 146.517879 146.518878-19.630984 414.015656-415.828655-125.104896-125.074896-415.797655 414.016656z m135.608888 125.729896c-0.031 0.031-0.063 0.031-0.063 0.031l0.063-0.031zM217.712244 543.711399v0zM896.130681 1024H127.869319c-35.354971 0-64.020947-28.665976-64.020947-64.020947s28.665976-64.020947 64.020947-64.020947h768.261362c35.354971 0 64.020947 28.665976 64.020947 64.020947S931.485652 1024 896.130681 1024z" p-id="14177"></path></svg>