<?xml version="1.0" standalone="no"?><!DOCTYPE svg PUBLIC "-//W3C//DTD SVG 1.1//EN" "http://www.w3.org/Graphics/SVG/1.1/DTD/svg11.dtd"><svg t="1758825645688" class="icon" viewBox="0 0 1036 1024" version="1.1" xmlns="http://www.w3.org/2000/svg" p-id="3243" xmlns:xlink="http://www.w3.org/1999/xlink" width="202.34375" height="200"><path d="M1025.330269 668.511242c-9.209553-29.470571-25.377436-52.903767-38.782452-68.560008v-0.409313c0-17.60048-4.297792-34.791646-12.688718-51.061857C971.710203 434.793245 879.410013 342.902368 766.337164 342.902368c-20.874988 0-35.098631 2.046567-49.117618 6.651344-3.888478-163.111422-136.506046-294.603378-298.79884-294.603377-164.851004 0-298.901169 135.482762-298.90117 302.073348v1.023284c-12.791046 23.126212-19.340062 47.480364-19.340062 72.448486 0 2.967523 0.102328 6.037374 0.306985 9.209553-22.102928 23.944839-48.503647 60.066753-62.829619 106.216849C10.846807 632.286999 14.018987 734.820026 72.755471 754.774058c19.647047 6.651344 41.033676 2.558209 60.373739-11.460777 0.511642 0.818627 1.023284 1.534926 1.432597 2.251224-32.949735 20.056361-51.266513 48.094334-51.266514 79.406815 0 64.364545 75.620666 111.026282 179.893275 111.026282 55.25732 0 106.523833-14.325972 139.473569-38.782453 10.744479 0.61397 20.261017 0.61397 31.107824 0 32.949735 24.354152 84.11392 38.782452 139.473569 38.782453 9.107225 0 18.112122-0.409313 26.707704-1.023284 12.279404 3.78615 25.582093 4.502448 41.033677 4.502448 3.683821 0 7.572299 0 11.563105-0.102328 4.604777 0 9.41421-0.102328 14.530629-0.102328 36.326571 0 70.197262-8.902568 94.039772-24.558809 3.376836 0.102328 6.753672 0.102328 10.232837 0 23.84251 15.656241 57.713201 24.558809 94.039772 24.558809 35.200959 0 67.639053-7.981613 91.174578-22.512242 25.991406-16.065554 40.317378-39.089437 40.317378-64.876187 0-10.02818-2.251224-19.749375-6.446687-28.754272 0.716299-0.204657 1.432597-0.409313 2.148895-0.716298 23.433197-7.981613 38.577796-30.800839 42.773259-64.364545 3.069851-26.196063-0.511642-58.838813-10.02818-89.537324z m-584.49965 184.191066c-0.511642 0-1.125612 0-1.637254 0.102329-15.246927 1.125612-27.117018 1.125612-41.852304 0-6.037374-0.511642-11.665434 1.432597-16.065554 5.321075-24.251824 20.874988-69.378635 33.870691-117.984611 33.870691-74.904367 0-135.892076-29.982212-135.892075-66.922755 0-19.647047 17.702808-38.27081 48.605976-51.061856 6.344359-2.660538 11.153792-8.083941 12.893374-14.735286 1.739582-6.651344 0.306985-13.712002-3.990806-19.135405-10.437494-13.302688-19.544719-27.424003-27.321675-42.05696-3.479165-6.446687-9.823524-10.846807-17.191166-11.563106-7.367643-0.818627-14.530629 2.148896-19.237734 7.776956-8.697911 10.335165-22.307585 23.023883-34.177675 18.930749-22.512241-7.572299-30.800839-78.076546-7.265315-154.004197 13.302688-42.977915 39.805736-76.132307 59.555112-96.290996 4.911762-5.01409 7.162986-11.972419 6.037374-18.828421-0.716299-4.604777-1.125612-9.107225-1.125612-13.405016 0-18.930748 5.525732-37.65684 16.372539-55.461977 2.353553-3.888478 3.479165-8.493255 3.172179-12.995703-0.102328-1.637254-0.204657-3.376836-0.204657-5.116418 0-142.236434 114.300789-257.969821 254.899971-257.969821s254.797642 115.52873 254.797641 257.765164c0 1.534926-0.102328 2.967523-0.204657 4.502448-0.306985 4.604777 0.818627 9.107225 3.17218 12.995703 11.051464 18.009793 16.679524 36.838213 16.679524 56.075947 0 4.502448-0.409313 9.107225-1.22794 13.916659-1.125612 6.958329 1.023284 13.916658 5.935045 19.033076 19.544719 20.056361 45.740781 52.903767 58.941141 95.677026 23.637854 75.927651 15.349256 146.329569-7.162985 154.004198-11.665434 3.990806-25.479764-8.493255-34.075348-18.726092-4.707105-5.62806-11.767763-8.595583-19.237733-7.776956-7.265314 0.716299-13.712002 5.116419-17.191166 11.563105-7.776956 14.632957-16.986509 28.8566-27.321675 41.954632-4.195463 5.423404-5.730389 12.484061-3.990807 19.135405 1.739582 6.651344 6.446687 12.074748 12.893375 14.735286 30.800839 12.791046 48.401319 31.41481 48.401319 50.959528 0 36.940542-60.987709 66.922754-135.892076 66.922754-48.605976 0-93.835115-12.995703-117.98461-33.87069-3.78615-3.479165-8.902568-5.321075-14.121315-5.321076z m541.112421-61.294693c-9.41421 3.172179-18.009793-0.920955-23.637854-5.01409-3.683821-2.660538-8.288598-3.683821-12.791046-2.865195-4.502448 0.818627-8.390926 3.581493-10.744479 7.367643-0.204657 0.306985-0.409313 0.716299-0.716298 1.023284-2.455881 3.683821-3.274508 8.288598-2.353553 12.586389 0.920955 4.297792 3.683821 8.083941 7.469971 10.437494 20.568002 12.58639 24.865794 26.912361 24.865794 36.735885 0 31.107825-42.466274 54.64335-98.746877 54.643349-31.517138 0-61.192365-8.083941-79.509144-21.591286-3.069851-2.251224-6.856001-3.376836-10.64215-3.172179-6.344359 0.306985-11.870091 0.306985-18.112122 0-3.78615-0.204657-7.572299 0.920955-10.64215 3.172179-10.335165 7.674628-24.45648 13.609673-40.522035 17.293495 29.675227-19.544719 47.173379-46.354752 47.173379-77.25792 0-31.210153-18.316778-59.145798-51.061857-79.304487 0.511642-0.818627 1.023284-1.534926 1.534926-2.353552 19.237734 14.018987 40.522035 18.009793 60.169081 11.358449 58.736484-19.954032 62.010992-122.487059 35.20096-208.852203-14.223643-45.84311-40.419706-81.658039-62.215649-105.602878 0.306985-3.274508 0.409313-6.549016 0.409313-9.925852 0-17.088838-3.069851-33.768362-9.004896-50.038573 11.051464-3.581493 21.795943-4.809433 38.27081-4.809434 96.393325 0 174.879185 79.304487 174.879185 176.823424v0.204657c0 2.762866 0.716299 5.525732 2.046567 7.981613 6.958329 12.484061 10.539822 25.479764 10.539822 38.782452 0 1.637254-0.102328 3.274508-0.204657 5.116418-0.306985 4.502448 1.22794 9.004897 4.195464 12.279405 11.870091 12.995703 27.833317 34.177676 36.224243 61.397022 14.837614 48.094334 13.507345 104.886579-12.074748 113.584491z" fill="#999999" p-id="3244"></path></svg>